<svg xmlns="http://www.w3.org/2000/svg" width="1792" height="1024" preserveAspectRatio="xMidYMid slice" viewBox="0 0 1792 1024"><defs><linearGradient id="sky" x1="0" x2="0" y1="0" y2="1"><stop offset="0%" stop-color="#fde68a"/><stop offset="50%" stop-color="#fbcfe8"/><stop offset="100%" stop-color="#fb7185"/></linearGradient><radialGradient id="sun" cx=".85" cy=".18" r=".18"><stop offset="0%" stop-color="#fef3c7" stop-opacity="1"/><stop offset="100%" stop-color="#fef3c7" stop-opacity="0"/></radialGradient></defs><rect width="1792" height="1024" fill="url(#sky)"/><rect width="1792" height="1024" fill="url(#sun)"/><circle cx="1520" cy="180" r="80" fill="#fffbeb"/><path fill="#86efac" d="M0 720 Q300 600 600 700 T1200 680 T1792 720 L1792 1024 L0 1024 Z" opacity=".85"/><path fill="#22c55e" d="M0 820 Q400 720 800 800 T1792 820 L1792 1024 L0 1024 Z" opacity=".7"/><g font-family="system-ui,Apple Color Emoji" text-anchor="middle"><text x="200" y="900" font-size="120">🌸</text><text x="500" y="960" font-size="140">🌼</text><text x="900" y="900" font-size="120">🌺</text><text x="1300" y="960" font-size="140">🌻</text><text x="1600" y="880" font-size="120">🌷</text><text x="350" y="380" font-size="160">🦋</text><text x="850" y="280" font-size="180">🦋</text><text x="1280" y="500" font-size="170">🦋</text><text x="180" y="560" font-size="120">🌿</text><text x="1620" y="600" font-size="120">🌿</text></g></svg>