<svg xmlns="http://www.w3.org/2000/svg" viewBox="0 0 82.38 82.38"><defs><style>.cls-1{fill:#fb0}.cls-2{fill:#151515}</style></defs><title>icon</title><g id="Layer_2" data-name="Layer 2"><g id="Layer_1-2" data-name="Layer 1"><g id="icon"><rect width="82.38" height="82.38" class="cls-1"/><line x1="37.27" x2="37.27" y1="70.61" y2="70.61" class="cls-2"/><line x1="45.11" x2="45.11" y1="66.08" y2="66.08" class="cls-2"/><polyline points="37.27 70.61 37.27 70.61 37.27 70.61" class="cls-2"/><polyline points="45.11 66.08 45.11 66.08 45.11 66.08" class="cls-2"/><line x1="68.63" x2="68.63" y1="52.5" y2="52.5" class="cls-2"/><polygon points="68.63 43.45 68.63 52.51 60.79 57.03 60.79 57.03 52.95 61.56 52.95 61.56 52.95 52.5 68.63 43.45" class="cls-2"/><line x1="68.63" x2="68.63" y1="52.5" y2="52.5" class="cls-2"/><line x1="45.11" x2="45.11" y1="66.08" y2="66.08" class="cls-2"/><line x1="37.27" x2="37.27" y1="70.61" y2="70.61" class="cls-2"/><polygon points="37.27 43.45 37.27 52.5 21.59 43.45 21.59 34.4 37.27 43.45" class="cls-2"/><polygon points="37.27 61.55 37.27 70.61 29.43 66.08 21.59 61.55 13.75 57.03 13.75 38.92 21.59 43.45 21.59 52.5 37.27 61.55" class="cls-2"/><polygon points="52.95 16.29 52.95 52.5 45.11 57.03 45.11 20.82 52.95 16.29" class="cls-2"/><polygon points="37.27 25.35 37.27 34.4 29.43 29.87 21.59 25.35 21.59 34.4 13.75 29.87 13.75 11.77 37.27 25.35" class="cls-2"/></g></g></g></svg>